#tb 0: 1001/30000
#media_type 0: video
#codec_id 0: rawvideo
#dimensions 0: 720x480
#sar 0: 0/1
0,          0,          0,        1,  2073600, 0x53fab433
0,          1,          1,        1,  2073600, 0x0d2b3f64
0,          2,          2,        1,  2073600, 0x857d1d48
0,          3,          3,        1,  2073600, 0xe1a7df32
0,          4,          4,        1,  2073600, 0x615861c1
0,          5,          5,        1,  2073600, 0xf6cdb0a9
0,          6,          6,        1,  2073600, 0x55dd9f16
0,          7,          7,        1,  2073600, 0x7c126a32
0,          8,          8,        1,  2073600, 0x53fdd4c5
0,          9,          9,        1,  2073600, 0x6062a4b3
